<?xml version="1.0" encoding="UTF-8"?>
<svg id="Layer_1" data-name="Layer 1" xmlns="http://www.w3.org/2000/svg" viewBox="0 0 367.04 367.04">
  <defs>
    <style>
      .cls-1 {
        fill: #fff;
      }

      .cls-2 {
        fill: #6d6e71;
      }

      .cls-3 {
        stroke: #427001;
        stroke-width: 20px;
      }

      .cls-3, .cls-4 {
        fill: none;
        stroke-miterlimit: 10;
      }

      .cls-5 {
        fill: #f1f2f2;
      }

      .cls-4 {
        stroke: #231f20;
        stroke-width: 50px;
      }
    </style>
  </defs>
  <circle class="cls-4" cx="183.52" cy="183.52" r="158.52"/>
  <ellipse class="cls-2" cx="184.04" cy="183.87" rx="135.39" ry="133.97" transform="translate(-9.67 10.22) rotate(-3.1)"/>
  <path class="cls-5" d="M122.23,85.25c-26.18,22.62-28.9,23.01-29.13,33.03s51.6,27.02,55.57,23.68-12.45-48.17-17.11-53.61-9.33-3.1-9.33-3.1Z"/>
  <path class="cls-5" d="M197.05,69.62c-34.59,.88-36.94-.55-43.47,7.05s22.74,53.63,27.93,53.56,20.94-45.13,20.78-52.3c-.16-7.16-5.24-8.32-5.24-8.32Z"/>
  <path class="cls-5" d="M78.08,139.31c-10.77,32.88-12.9,34.61-7.93,43.32,4.97,8.71,58.15-3.44,59.82-8.35,1.67-4.91-35.5-34.86-42.3-37.12-6.8-2.26-9.59,2.15-9.59,2.15Z"/>
  <path class="cls-5" d="M71.62,210.71c12.33,32.33,11.77,35.02,21.11,38.65,9.34,3.64,43.01-39.28,41.22-44.15-1.79-4.86-49.53-4.74-56.23-2.21-6.7,2.53-6.1,7.71-6.1,7.71Z"/>
  <path class="cls-5" d="M106.23,267.79c26.41,22.34,27.22,24.97,37.16,23.64,9.94-1.33,18.67-55.18,14.76-58.57-3.92-3.39-45.65,19.79-50.3,25.24s-1.62,9.69-1.62,9.69Z"/>
  <path class="cls-5" d="M244.97,286.3c26.4-22.36,29.13-22.72,29.46-32.74s-51.33-27.54-55.33-24.23,11.97,48.29,16.58,53.78c4.61,5.48,9.29,3.2,9.29,3.2Z"/>
  <path class="cls-5" d="M169.86,298.43c34.59-.53,36.93,.92,43.54-6.62,6.61-7.54-22.21-53.85-27.39-53.83s-21.39,44.92-21.3,52.09c.08,7.16,5.16,8.37,5.16,8.37Z"/>
  <path class="cls-5" d="M289.91,231.32c11.99-32.45,14.18-34.11,9.54-43-4.64-8.89-58.24,1.27-60.09,6.11-1.85,4.84,34.17,36.16,40.88,38.67,6.71,2.51,9.67-1.79,9.67-1.79Z"/>
  <path class="cls-5" d="M301.62,158.34c-12.01-32.45-11.42-35.13-20.72-38.86-9.31-3.73-43.4,38.85-41.66,43.74s49.48,5.23,56.21,2.77c6.73-2.46,6.18-7.64,6.18-7.64Z"/>
  <path class="cls-5" d="M264.73,98.74c-26.66-22.05-27.5-24.67-37.42-23.23-9.92,1.44-18.07,55.38-14.11,58.73s45.43-20.29,50.02-25.79,1.51-9.71,1.51-9.71Z"/>
  <circle class="cls-5" cx="184.03" cy="184.59" r="40.38"/>
  <path class="cls-3" d="M293.57,65.53c31.59,29.36,51.36,71.29,51.36,117.83,0,49.32-22.2,93.45-57.15,122.95"/>
  <path class="cls-3" d="M74.65,65.53c-31.6,29.36-51.37,71.29-51.37,117.83,0,49.32,22.2,93.45,57.16,122.95"/>
  <g>
    <path class="cls-1" d="M101.38,323.85c1.38,2.9,4.35,5.76,6.75,6.83,1.84,.82,3.26,.71,3.75-.42,1.48-3.4-11.32-6.88-7.7-13.82,1.87-3.55,6.25-4.09,11.21-1.87,3,1.34,5.72,3.49,7.41,5.69-1.2,1.08-2.42,2.14-3.66,3.2-1.83-2.16-4.3-4.24-6.04-5.02-1.4-.63-2.56-.6-3.01,.35-1.64,3.52,10.8,6.5,8.05,13.7-1.54,4.05-6.64,4.6-11.92,2.23-3.95-1.76-7.34-4.97-9.02-8.24,1.41-.86,2.8-1.73,4.17-2.62Z"/>
    <path class="cls-1" d="M128.88,320.17c5.59,1.93,11.26,3.56,16.99,4.88-.33,1.41-.65,2.82-.98,4.23-3.97-.92-7.91-1.98-11.82-3.18-.43,1.37-.85,2.74-1.28,4.12,3.62,1.11,7.26,2.11,10.93,2.98-.34,1.41-.68,2.81-1.02,4.22-3.76-.9-7.5-1.91-11.2-3.05-.43,1.39-.87,2.78-1.3,4.17,4.33,1.33,8.7,2.5,13.1,3.51-.33,1.41-.66,2.82-.99,4.23-6.61-1.51-13.15-3.39-19.59-5.62,2.4-6.83,4.79-13.66,7.16-20.49Z"/>
    <path class="cls-1" d="M162.63,327.84c3.3,.42,6.6,2.15,8.74,4.53-1.21,1.18-2.45,2.34-3.72,3.49-1.38-1.87-3.48-3.18-5.51-3.43-3.61-.45-6.79,1.77-7.4,5.29-.62,3.57,1.86,6.8,5.78,7.29,2.08,.26,4.59-.47,6.44-1.86,1.1,1.24,2.22,2.47,3.36,3.69-2.83,2.2-7.03,3.4-10.75,2.92-7.69-.98-12.32-6.89-10.98-13.1,1.32-6.13,7.32-9.67,14.02-8.84Z"/>
    <path class="cls-1" d="M174.63,329.07c6.39,.34,12.81,.31,19.21-.08,.09,1.49,.18,2.97,.27,4.46-2.32,.14-4.64,.24-6.96,.29,.11,5.76,.21,11.51,.31,17.27-2.15,.05-4.31,.05-6.46,.03,.1-5.76,.2-11.51,.28-17.27-2.3-.03-4.59-.11-6.89-.23,.08-1.49,.16-2.97,.24-4.46Z"/>
    <path class="cls-1" d="M208.14,327.32c6.85-1.01,13,2.36,14.43,8.5,1.44,6.14-3.32,12.23-11.24,13.41-7.89,1.17-14.11-3.25-14.49-9.58-.38-6.33,4.48-11.31,11.3-12.33Zm2.6,17.32c3.83-.57,6.34-3.93,5.65-7.52-.69-3.6-4-5.77-7.52-5.24-3.52,.53-6.18,3.58-5.82,7.23,.36,3.64,3.88,6.11,7.68,5.54Z"/>
    <path class="cls-1" d="M225.56,323.97c3.29-.85,6.55-1.8,9.8-2.86,5.72-1.87,9.94-.67,11.71,3.85,1.2,3.09,.59,5.91-1.74,8.1,2.44,1.66,4.94,3.27,7.5,4.83-2.33,.92-4.67,1.78-7.02,2.6-1.87-1.5-3.71-3.03-5.51-4.59-.06,.02-.11,.04-.17,.06-1.53,.5-3.06,.97-4.6,1.43,.57,1.95,1.14,3.91,1.71,5.87-2.09,.62-4.2,1.2-6.31,1.75-1.78-7.01-3.57-14.02-5.37-21.03Zm13.25,7.85c2.56-.84,3.65-2.51,2.88-4.68-.75-2.14-2.55-2.71-5-1.91-1.44,.47-2.88,.91-4.32,1.34,.65,2.21,1.3,4.42,1.95,6.63,1.5-.44,3-.91,4.49-1.39Z"/>
    <path class="cls-1" d="M248.36,316.25c3.11-1.31,6.2-2.71,9.25-4.21,3.19,6.51,6.36,13.02,9.52,19.54-2,.98-4.01,1.93-6.03,2.83-2.33-5.27-4.67-10.55-7.02-15.81-1.33,.6-2.67,1.18-4.01,1.74-.57-1.37-1.14-2.73-1.7-4.09Z"/>
  </g>
  <g>
    <path class="cls-1" d="M263.48,40.51c-1.45-2.89-4.49-5.71-6.93-6.73-1.86-.79-3.28-.66-3.74,.49-1.4,3.43,11.5,6.7,8.03,13.72-1.8,3.59-6.18,4.2-11.2,2.05-3.03-1.3-5.8-3.39-7.54-5.57,1.18-1.1,2.38-2.19,3.59-3.26,1.88,2.13,4.4,4.17,6.16,4.93,1.42,.61,2.58,.56,3.01-.4,1.56-3.56-10.96-6.32-8.37-13.59,1.44-4.09,6.53-4.73,11.87-2.45,3.99,1.69,7.47,4.86,9.23,8.11-1.39,.89-2.76,1.79-4.11,2.7Z"/>
    <path class="cls-1" d="M236.02,44.67c-5.64-1.84-11.34-3.36-17.1-4.58,.3-1.42,.6-2.83,.9-4.25,3.99,.84,7.95,1.83,11.89,2.96,.4-1.38,.79-2.76,1.19-4.14-3.64-1.05-7.31-1.98-10.99-2.78,.31-1.41,.62-2.83,.92-4.24,3.78,.83,7.53,1.78,11.27,2.85,.4-1.4,.8-2.8,1.2-4.2-4.36-1.25-8.76-2.34-13.18-3.27,.29-1.42,.59-2.83,.88-4.25,6.64,1.39,13.22,3.14,19.72,5.26-2.23,6.88-4.46,13.77-6.69,20.65Z"/>
    <path class="cls-1" d="M202.13,37.61c-3.3-.36-6.63-2.03-8.8-4.37,1.19-1.2,2.4-2.39,3.63-3.56,1.41,1.84,3.54,3.11,5.57,3.33,3.61,.38,6.74-1.9,7.27-5.43,.54-3.58-2.01-6.76-5.94-7.18-2.08-.22-4.56,.56-6.37,1.98-1.12-1.22-2.27-2.43-3.44-3.63,2.77-2.25,6.92-3.54,10.64-3.13,7.69,.83,12.46,6.66,11.27,12.89-1.18,6.16-7.1,9.81-13.81,9.1Z"/>
    <path class="cls-1" d="M190.14,36.6c-6.38-.22-12.76-.07-19.11,.44-.12-1.48-.24-2.97-.36-4.45,2.3-.19,4.61-.33,6.92-.42-.23-5.75-.47-11.5-.71-17.26,2.14-.09,4.29-.14,6.43-.15,.05,5.76,.09,11.51,.12,17.27,2.29-.01,4.58,.02,6.87,.1-.05,1.49-.1,2.97-.15,4.46Z"/>
    <path class="cls-1" d="M156.86,38.96c-6.78,1.13-12.94-2.13-14.52-8.24-1.59-6.11,2.98-12.26,10.83-13.59,7.81-1.31,14.13,2.98,14.65,9.3,.52,6.32-4.2,11.39-10.95,12.53Zm-2.99-17.26c-3.79,.64-6.2,4.04-5.43,7.61,.77,3.58,4.11,5.69,7.59,5.1,3.48-.59,6.06-3.69,5.61-7.32-.45-3.63-4.01-6.03-7.77-5.39Z"/>
    <path class="cls-1" d="M139.66,42.61c-3.24,.9-6.45,1.91-9.64,3.01-5.62,1.96-9.82,.82-11.7-3.66-1.27-3.06-.74-5.88,1.51-8.1-2.47-1.61-5-3.17-7.58-4.68,2.29-.95,4.59-1.85,6.9-2.71,1.9,1.47,3.77,2.96,5.6,4.48,.06-.02,.11-.04,.17-.06,1.5-.52,3.01-1.02,4.53-1.5-.62-1.94-1.24-3.88-1.86-5.82,2.06-.65,4.14-1.27,6.22-1.86,1.96,6.96,3.92,13.93,5.87,20.9Zm-13.33-7.62c-2.52,.87-3.55,2.56-2.74,4.71,.8,2.12,2.6,2.66,5.01,1.82,1.41-.49,2.83-.96,4.25-1.41-.7-2.2-1.4-4.39-2.1-6.59-1.48,.47-2.95,.96-4.42,1.47Z"/>
    <path class="cls-1" d="M117.26,50.67c-3.05,1.35-6.07,2.79-9.05,4.33-3.33-6.44-6.66-12.87-9.99-19.3,1.96-1.01,3.93-1.98,5.91-2.92,2.47,5.21,4.94,10.42,7.41,15.63,1.3-.62,2.61-1.21,3.93-1.8,.6,1.35,1.2,2.7,1.79,4.06Z"/>
  </g>
</svg>