<?xml version="1.0" encoding="UTF-8"?>
<svg id="Layer_1" data-name="Layer 1" xmlns="http://www.w3.org/2000/svg" viewBox="0 0 367.04 367.04">
  <defs>
    <style>
      .cls-1, .cls-2 {
        fill: #fff;
      }

      .cls-3 {
        fill: #6d6e71;
      }

      .cls-4 {
        stroke-width: 20px;
      }

      .cls-4, .cls-2 {
        stroke: #003259;
      }

      .cls-4, .cls-2, .cls-5 {
        stroke-miterlimit: 10;
      }

      .cls-4, .cls-5 {
        fill: none;
      }

      .cls-6 {
        fill: #f1f2f2;
      }

      .cls-2 {
        stroke-width: 13px;
      }

      .cls-5 {
        stroke: #231f20;
        stroke-width: 50px;
      }
    </style>
  </defs>
  <circle class="cls-5" cx="183.52" cy="183.52" r="158.52"/>
  <ellipse class="cls-3" cx="184.04" cy="183.87" rx="135.39" ry="133.97" transform="translate(-9.67 10.22) rotate(-3.1)"/>
  <path class="cls-6" d="M122.23,85.25c-26.18,22.62-28.9,23.01-29.13,33.03s51.6,27.02,55.57,23.68-12.45-48.17-17.11-53.61-9.33-3.1-9.33-3.1Z"/>
  <path class="cls-6" d="M197.05,69.62c-34.59,.88-36.94-.55-43.47,7.05s22.74,53.63,27.93,53.56,20.94-45.13,20.78-52.3c-.16-7.16-5.24-8.32-5.24-8.32Z"/>
  <path class="cls-6" d="M78.08,139.31c-10.77,32.88-12.9,34.61-7.93,43.32,4.97,8.71,58.15-3.44,59.82-8.35,1.67-4.91-35.5-34.86-42.3-37.12-6.8-2.26-9.59,2.15-9.59,2.15Z"/>
  <path class="cls-6" d="M71.62,210.71c12.33,32.33,11.77,35.02,21.11,38.65,9.34,3.64,43.01-39.28,41.22-44.15-1.79-4.86-49.53-4.74-56.23-2.21-6.7,2.53-6.1,7.71-6.1,7.71Z"/>
  <path class="cls-6" d="M106.23,267.79c26.41,22.34,27.22,24.97,37.16,23.64,9.94-1.33,18.67-55.18,14.76-58.57-3.92-3.39-45.65,19.79-50.3,25.24s-1.62,9.69-1.62,9.69Z"/>
  <path class="cls-6" d="M244.97,286.3c26.4-22.36,29.13-22.72,29.46-32.74s-51.33-27.54-55.33-24.23,11.97,48.29,16.58,53.78c4.61,5.48,9.29,3.2,9.29,3.2Z"/>
  <path class="cls-6" d="M169.86,298.43c34.59-.53,36.93,.92,43.54-6.62,6.61-7.54-22.21-53.85-27.39-53.83s-21.39,44.92-21.3,52.09c.08,7.16,5.16,8.37,5.16,8.37Z"/>
  <path class="cls-6" d="M289.91,231.32c11.99-32.45,14.18-34.11,9.54-43-4.64-8.89-58.24,1.27-60.09,6.11-1.85,4.84,34.17,36.16,40.88,38.67,6.71,2.51,9.67-1.79,9.67-1.79Z"/>
  <path class="cls-6" d="M301.62,158.34c-12.01-32.45-11.42-35.13-20.72-38.86-9.31-3.73-43.4,38.85-41.66,43.74s49.48,5.23,56.21,2.77c6.73-2.46,6.18-7.64,6.18-7.64Z"/>
  <path class="cls-6" d="M264.73,98.74c-26.66-22.05-27.5-24.67-37.42-23.23-9.92,1.44-18.07,55.38-14.11,58.73s45.43-20.29,50.02-25.79,1.51-9.71,1.51-9.71Z"/>
  <circle class="cls-2" cx="184.03" cy="184.59" r="40.38"/>
  <path class="cls-4" d="M292.57,65.53c31.59,29.36,51.36,71.29,51.36,117.83,0,49.32-22.2,93.45-57.15,122.95"/>
  <path class="cls-4" d="M73.65,65.53c-31.6,29.36-51.37,71.29-51.37,117.83,0,49.32,22.2,93.45,57.16,122.95"/>
  <g>
    <path class="cls-1" d="M100.77,323.43c1.4,2.84,4.59,5.94,6.96,6.98,1.44,.64,2.55,.61,2.94-.3,1.27-2.88-11.33-6.52-7.72-13.43,1.96-3.71,6.51-4.3,11.68-2,3.18,1.42,6.1,3.66,7.9,5.97-1.38,1.25-2.78,2.48-4.2,3.69-1.8-2.07-4.49-4.47-6.29-5.28-1.07-.48-1.93-.47-2.27,.26-1.38,3.02,10.81,6.1,8.09,13.32-1.62,4.32-6.96,4.69-12.27,2.32-4.01-1.78-7.77-5.09-9.59-8.47,1.6-1,3.19-2.02,4.75-3.06Z"/>
    <path class="cls-1" d="M127.87,320.2c5.84,2.03,11.78,3.73,17.77,5.1-.37,1.61-.74,3.22-1.11,4.83-3.93-.9-7.84-1.93-11.71-3.11-.33,1.09-.66,2.18-1,3.26,3.58,1.08,7.19,2.05,10.82,2.91-.38,1.61-.77,3.22-1.15,4.83-3.73-.88-7.44-1.88-11.12-2.99-.34,1.1-.67,2.19-1.01,3.29,4.25,1.29,8.53,2.42,12.85,3.4-.37,1.61-.74,3.22-1.12,4.83-6.89-1.56-13.7-3.51-20.41-5.84,2.41-6.83,4.81-13.67,7.19-20.51Z"/>
    <path class="cls-1" d="M162.18,328.03c3.37,.43,6.82,2.24,8.98,4.74-1.42,1.37-2.86,2.73-4.34,4.06-1.31-1.86-3.32-3.23-5.22-3.47-3.1-.39-5.83,1.58-6.36,4.74-.52,3.15,1.59,5.95,4.93,6.37,1.89,.24,4.29-.5,6.09-1.86,1.26,1.45,2.54,2.88,3.86,4.3-2.87,2.35-7.22,3.61-11.04,3.11-7.75-.99-12.38-6.88-11.03-13.14,1.33-6.2,7.29-9.71,14.12-8.85Z"/>
    <path class="cls-1" d="M174.15,329.3c6.59,.36,13.2,.33,19.79-.08,.1,1.71,.21,3.43,.31,5.14-2.25,.14-4.5,.24-6.76,.29,.12,5.53,.23,11.06,.33,16.58-2.53,.06-5.05,.07-7.58,.03,.12-5.53,.22-11.06,.32-16.59-2.24-.04-4.48-.11-6.72-.24,.1-1.71,.19-3.43,.29-5.14Z"/>
    <path class="cls-1" d="M208.31,327.53c6.95-1.03,13.09,2.32,14.53,8.52,1.45,6.21-3.32,12.26-11.34,13.45-8.02,1.18-14.24-3.21-14.62-9.6-.38-6.39,4.48-11.34,11.43-12.37Zm2.53,16.61c3.25-.48,5.4-3.38,4.81-6.61-.59-3.24-3.44-5.13-6.46-4.69-3.04,.46-5.38,3.12-5.03,6.39,.35,3.27,3.44,5.39,6.68,4.9Z"/>
    <path class="cls-1" d="M225.32,324.3c3.44-.87,6.85-1.86,10.24-2.95,5.81-1.89,10.11-.64,11.92,3.97,1.16,3.01,.63,5.75-1.47,7.93,2.38,1.66,4.81,3.27,7.3,4.84-2.72,1.06-5.45,2.06-8.2,3-1.7-1.48-3.38-2.99-5.02-4.51-1.25,.4-2.5,.79-3.75,1.16,.55,1.87,1.1,3.75,1.64,5.63-2.45,.73-4.9,1.4-7.36,2.03-1.75-7.03-3.51-14.06-5.29-21.08Zm13.57,7.44c2.06-.66,2.9-2.08,2.27-3.93-.61-1.79-2.1-2.39-4.08-1.75-1.27,.41-2.54,.8-3.82,1.18,.56,1.9,1.12,3.81,1.68,5.71,1.32-.39,2.64-.8,3.95-1.22Z"/>
    <path class="cls-1" d="M248.44,316.61c3.39-1.4,6.75-2.92,10.08-4.56,3.19,6.51,6.36,13.02,9.52,19.54-2.34,1.15-4.7,2.25-7.08,3.3-2.21-5.07-4.42-10.14-6.65-15.2-1.3,.57-2.6,1.13-3.91,1.67-.65-1.59-1.3-3.17-1.96-4.76Z"/>
  </g>
  <g>
    <path class="cls-1" d="M263.13,40.92c-1.47-2.83-4.74-5.88-7.14-6.88-1.46-.62-2.57-.56-2.94,.36-1.2,2.91,11.5,6.34,8.04,13.33-1.88,3.75-6.43,4.42-11.66,2.19-3.21-1.37-6.19-3.57-8.04-5.84,1.35-1.27,2.73-2.53,4.12-3.77,1.85,2.04,4.59,4.39,6.41,5.18,1.08,.46,1.94,.44,2.27-.3,1.32-3.05-10.96-5.93-8.4-13.2,1.52-4.36,6.84-4.83,12.21-2.55,4.06,1.71,7.9,4.96,9.8,8.33-1.58,1.03-3.14,2.08-4.68,3.15Z"/>
    <path class="cls-1" d="M236.07,44.61c-5.89-1.93-11.86-3.52-17.88-4.78,.34-1.62,.68-3.24,1.01-4.86,3.95,.83,7.87,1.79,11.77,2.89,.31-1.09,.62-2.19,.93-3.28-3.6-1.02-7.23-1.92-10.88-2.71,.35-1.62,.69-3.23,1.04-4.85,3.75,.81,7.48,1.74,11.18,2.79,.31-1.1,.62-2.21,.93-3.31-4.28-1.21-8.58-2.26-12.92-3.16,.33-1.62,.67-3.24,1-4.86,6.91,1.43,13.77,3.25,20.53,5.46-2.24,6.89-4.48,13.78-6.72,20.67Z"/>
    <path class="cls-1" d="M201.63,37.41c-3.37-.37-6.84-2.11-9.05-4.57,1.38-1.4,2.8-2.78,4.24-4.14,1.35,1.84,3.38,3.17,5.28,3.37,3.1,.33,5.79-1.69,6.24-4.85,.45-3.16-1.73-5.92-5.07-6.28-1.89-.2-4.26,.58-6.03,1.98-1.29-1.42-2.6-2.83-3.95-4.23,2.8-2.41,7.1-3.74,10.93-3.32,7.75,.84,12.52,6.65,11.31,12.94-1.19,6.22-7.08,9.84-13.91,9.11Z"/>
    <path class="cls-1" d="M189.68,36.37c-6.57-.24-13.14-.09-19.69,.44-.14-1.71-.28-3.42-.42-5.13,2.23-.18,4.47-.32,6.71-.41-.24-5.52-.48-11.05-.72-16.57,2.51-.11,5.03-.16,7.54-.17,.03,5.53,.05,11.06,.07,16.59,2.23,0,4.46,.03,6.69,.11-.06,1.71-.12,3.43-.18,5.14Z"/>
    <path class="cls-1" d="M155.76,38.76c-6.87,1.15-13.03-2.09-14.62-8.26-1.6-6.17,2.97-12.29,10.91-13.63,7.94-1.33,14.25,2.94,14.77,9.32,.53,6.38-4.2,11.42-11.07,12.57Zm-2.9-16.55c-3.21,.54-5.28,3.47-4.61,6.68,.67,3.22,3.54,5.07,6.52,4.57,3.01-.51,5.28-3.21,4.85-6.47-.42-3.26-3.55-5.32-6.76-4.78Z"/>
    <path class="cls-1" d="M138.96,42.28c-3.38,.93-6.75,1.97-10.08,3.11-5.71,1.98-10,.79-11.9-3.77-1.23-2.98-.78-5.72,1.25-7.93-2.41-1.61-4.87-3.18-7.38-4.7,2.67-1.1,5.35-2.15,8.06-3.12,1.73,1.45,3.44,2.92,5.11,4.42,1.23-.42,2.46-.83,3.69-1.22-.6-1.86-1.19-3.72-1.79-5.58,2.41-.77,4.83-1.48,7.26-2.15,1.93,6.98,3.86,13.97,5.79,20.95Zm-13.63-7.21c-2.02,.7-2.82,2.12-2.15,3.95,.65,1.78,2.14,2.35,4.09,1.68,1.25-.43,2.5-.84,3.76-1.24-.6-1.89-1.21-3.78-1.81-5.67-1.3,.41-2.6,.84-3.89,1.29Z"/>
    <path class="cls-1" d="M116.26,50.31c-3.32,1.45-6.61,3.01-9.85,4.68-3.33-6.44-6.66-12.87-9.99-19.3,2.29-1.18,4.6-2.32,6.93-3.4,2.34,5.01,4.69,10.02,7.02,15.03,1.27-.59,2.55-1.17,3.83-1.73,.69,1.57,1.37,3.14,2.06,4.72Z"/>
  </g>
</svg>