<?xml version="1.0" encoding="UTF-8"?>
<svg id="Layer_1" data-name="Layer 1" xmlns="http://www.w3.org/2000/svg" viewBox="0 0 195.23 214.49">
  <defs>
    <style>
      .cls-1, .cls-2 {
        fill: #9f8600;
      }

      .cls-3 {
        font-size: 127.24px;
      }

      .cls-3, .cls-4 {
        fill: #dcaf00;
      }

      .cls-3, .cls-2 {
        font-family: GillSansMT-Bold, 'Gill Sans MT';
      }

      .cls-2 {
        font-size: 148.81px;
      }
    </style>
  </defs>
  <g>
    <path class="cls-1" d="M195.23,137.46c0,36.09-29.25,65.34-65.33,65.34-29.17,0-53.89-19.13-62.28-45.53-1.99-6.24-3.06-12.9-3.06-19.81,0-36.08,29.26-65.33,65.34-65.33,6.92,0,13.59,1.08,19.85,3.07,26.38,8.4,45.48,33.1,45.48,62.26Z"/>
    <text class="cls-3" transform="translate(95.1 173.86)"><tspan x="0" y="0">$</tspan></text>
  </g>
  <g>
    <path class="cls-4" d="M149.75,75.2c-6.26-1.99-12.93-3.07-19.85-3.07-36.08,0-65.34,29.25-65.34,65.33,0,6.91,1.07,13.57,3.06,19.81C29.66,153.54,0,121.53,0,82.58,0,41.13,33.6,7.53,75.06,7.53c38.96,0,70.99,29.69,74.69,67.67Z"/>
    <path class="cls-4" d="M150.11,82.58c0,41.46-33.6,75.06-75.05,75.06-2.51,0-4.99-.12-7.44-.37-1.99-6.24-3.06-12.9-3.06-19.81,0-36.08,29.26-65.33,65.34-65.33,6.92,0,13.59,1.08,19.85,3.07,.24,2.43,.36,4.89,.36,7.38Z"/>
    <text class="cls-2" transform="translate(34.36 125.15)"><tspan x="0" y="0">$</tspan></text>
  </g>
</svg>